<svg xmlns="http://www.w3.org/2000/svg" width="22" height="17" viewBox="0 0 22 17">
  <metadata><?xpacket begin="﻿" id="W5M0MpCehiHzreSzNTczkc9d"?>
<x:xmpmeta xmlns:x="adobe:ns:meta/" x:xmptk="Adobe XMP Core 5.6-c142 79.160924, 2017/07/13-01:06:39        ">
   <rdf:RDF xmlns:rdf="http://www.w3.org/1999/02/22-rdf-syntax-ns#">
      <rdf:Description rdf:about=""/>
   </rdf:RDF>
</x:xmpmeta>
                                                                                                    
                                                                                                    
                                                                                                    
                                                                                                    
                                                                                                    
                                                                                                    
                                                                                                    
                                                                                                    
                                                                                                    
                                                                                                    
                                                                                                    
                                                                                                    
                                                                                                    
                                                                                                    
                                                                                                    
                                                                                                    
                                                                                                    
                                                                                                    
                                                                                                    
                                                                                                    
                           
<?xpacket end="w"?></metadata>
<defs>
    <style>
      .cls-1 {
        fill: #fff;
        fill-rule: evenodd;
        opacity: 0.8;
      }
    </style>
  </defs>
  <path id="Forma_1" data-name="Forma 1" class="cls-1" d="M11,8.509c1.928,0,3.428-2.061,3.428-4.194V3.647a3.435,3.435,0,1,0-6.856,0V4.315C7.572,6.448,9.071,8.509,11,8.509ZM4.132,9.2a2.388,2.388,0,0,0,2.06-2.267V5.8a2.1,2.1,0,0,0-2.06-2.267A2.119,2.119,0,0,0,2.071,5.8V6.932A2.413,2.413,0,0,0,4.132,9.2Zm12.344,2.834c0-.011,0-0.021-0.005-0.032a2.81,2.81,0,0,0-.075-0.392,0,0,0,0,0,0,0,2.452,2.452,0,0,0-.375-0.791h0a4.452,4.452,0,0,0-1.476-1.279,1.6,1.6,0,0,0-.794-0.326,2.2,2.2,0,0,0-1.267.831h0l-0.507.481a2.026,2.026,0,0,1-.974.813,2.027,2.027,0,0,1-.974-0.813l-0.507-.481h0A2.2,2.2,0,0,0,8.25,9.208a1.466,1.466,0,0,0-.794.326,5.21,5.21,0,0,0-1.475,1.278h0a0.032,0.032,0,0,1,0,0,2.452,2.452,0,0,0-.372.786l0,0.008A2.883,2.883,0,0,0,5.53,12c0,0.012,0,.024-0.005.036a4.041,4.041,0,0,0-.024.433c0,0.016,0,3.1,0,3.117A1.179,1.179,0,0,0,6.875,17h8.249A1.17,1.17,0,0,0,16.5,15.583c0-.015,0-3.1,0-3.117A4.059,4.059,0,0,0,16.476,12.033ZM17.88,9.2a2.388,2.388,0,0,0,2.06-2.267V5.8a2.07,2.07,0,1,0-4.12,0V6.932A2.412,2.412,0,0,0,17.88,9.2ZM1.565,10.733A3.086,3.086,0,0,0,0,13.458c0,0.012,0,1.406,0,1.417a1.163,1.163,0,0,0,1.375,1.417h2.75v-4.25l-0.687-.708C2.711,10.672,2.1,10.421,1.565,10.733Zm2.561,1.308c0.015,0.014,0-.336,0,0h0ZM22,13.458a3.086,3.086,0,0,0-1.564-2.725c-0.533-.312-1.146-0.061-1.873.6l-0.687.708v4.25h2.75A1.163,1.163,0,0,0,22,14.875C22,14.864,22,13.47,22,13.458Zm-4.125-1.417c0-.336-0.015.014,0,0h0Z"/>
</svg>
