<svg xmlns="http://www.w3.org/2000/svg" width="16.813" height="15.75" viewBox="0 0 16.813 15.75">
  <metadata><?xpacket begin="﻿" id="W5M0MpCehiHzreSzNTczkc9d"?>
<x:xmpmeta xmlns:x="adobe:ns:meta/" x:xmptk="Adobe XMP Core 5.6-c142 79.160924, 2017/07/13-01:06:39        ">
   <rdf:RDF xmlns:rdf="http://www.w3.org/1999/02/22-rdf-syntax-ns#">
      <rdf:Description rdf:about=""/>
   </rdf:RDF>
</x:xmpmeta>
                                                                                                    
                                                                                                    
                                                                                                    
                                                                                                    
                                                                                                    
                                                                                                    
                                                                                                    
                                                                                                    
                                                                                                    
                                                                                                    
                                                                                                    
                                                                                                    
                                                                                                    
                                                                                                    
                                                                                                    
                                                                                                    
                                                                                                    
                                                                                                    
                                                                                                    
                                                                                                    
                           
<?xpacket end="w"?></metadata>
<defs>
    <style>
      .cls-1 {
        fill: #f1dded;
        fill-rule: evenodd;
      }
    </style>
  </defs>
  <path id="Forma_1" data-name="Forma 1" class="cls-1" d="M16.624,7.36L14.076,4.795V1.831a0.964,0.964,0,1,0-1.927,0V2.854l-1.9-1.91a2.523,2.523,0,0,0-3.5,0L0.376,7.36a0.975,0.975,0,0,0,0,1.372,0.959,0.959,0,0,0,1.363,0L8.11,2.318a0.566,0.566,0,0,1,.78,0l6.371,6.415a0.959,0.959,0,0,0,1.363,0A0.975,0.975,0,0,0,16.624,7.36Zm-7.789-3.2a0.471,0.471,0,0,0-.669,0L2.562,9.8a0.479,0.479,0,0,0-.139.337v4.114A1.742,1.742,0,0,0,4.159,16H6.933V11.673h3.132V16H12.84a1.742,1.742,0,0,0,1.736-1.748V10.137A0.477,0.477,0,0,0,14.438,9.8Z" transform="translate(-0.094 -0.25)"/>
</svg>
