<svg xmlns="http://www.w3.org/2000/svg" width="15.719" height="15.844" viewBox="0 0 15.719 15.844">
  <metadata><?xpacket begin="﻿" id="W5M0MpCehiHzreSzNTczkc9d"?>
<x:xmpmeta xmlns:x="adobe:ns:meta/" x:xmptk="Adobe XMP Core 5.6-c142 79.160924, 2017/07/13-01:06:39        ">
   <rdf:RDF xmlns:rdf="http://www.w3.org/1999/02/22-rdf-syntax-ns#">
      <rdf:Description rdf:about=""/>
   </rdf:RDF>
</x:xmpmeta>
                                                                                                    
                                                                                                    
                                                                                                    
                                                                                                    
                                                                                                    
                                                                                                    
                                                                                                    
                                                                                                    
                                                                                                    
                                                                                                    
                                                                                                    
                                                                                                    
                                                                                                    
                                                                                                    
                                                                                                    
                                                                                                    
                                                                                                    
                                                                                                    
                                                                                                    
                                                                                                    
                           
<?xpacket end="w"?></metadata>
<defs>
    <style>
      .cls-1 {
        fill: #fff;
        fill-rule: evenodd;
        opacity: 0.8;
      }
    </style>
  </defs>
  <path id="Forma_1" data-name="Forma 1" class="cls-1" d="M3.26,6.3a2.972,2.972,0,0,0,.924-0.148L5.958,7.972,7.9,5.983,6.128,4.166a3.143,3.143,0,0,0-.736-3.121,2.95,2.95,0,0,0-2.124-.9,2.983,2.983,0,0,0-1.3.3A0.211,0.211,0,0,0,1.853.6,0.217,0.217,0,0,0,1.91.786L3.777,2.7a0.755,0.755,0,0,1,0,1.053,0.731,0.731,0,0,1-1.028,0L0.881,1.839A0.2,0.2,0,0,0,.7,1.78,0.206,0.206,0,0,0,.548,1.9,3.14,3.14,0,0,0,1.135,5.4,2.953,2.953,0,0,0,3.26,6.3Zm9.481,3.535a2.973,2.973,0,0,0-.925.149L9.853,7.979,7.909,9.969l1.963,2.01a3.146,3.146,0,0,0,.736,3.12,2.957,2.957,0,0,0,3.425.6,0.211,0.211,0,0,0,.115-0.156,0.215,0.215,0,0,0-.058-0.185l-1.867-1.912a0.755,0.755,0,0,1,0-1.053,0.731,0.731,0,0,1,1.028,0L15.118,14.3a0.2,0.2,0,0,0,.181.059,0.207,0.207,0,0,0,.152-0.117,3.139,3.139,0,0,0-.586-3.506A2.951,2.951,0,0,0,12.741,9.839Zm-0.8-4.531a0.623,0.623,0,0,0,.593.155c0.3-.156,1.156.7,1.428,0.906l0.006,0-0.149.153a0.517,0.517,0,0,0,0,.722,0.492,0.492,0,0,0,.707,0l1.178-1.2a0.522,0.522,0,0,0,0-.724,0.492,0.492,0,0,0-.706,0l-0.2.2a1.865,1.865,0,0,1-.4-0.749c0.144-.566-0.985-1.9-0.985-1.9C10.616,0,8.744.065,7.854,0.378,7.5,0.5,7.563.584,7.934,0.651c2.7,0.483,3.036,2.113,2.578,2.742a0.472,0.472,0,0,0,.081.536l0.1,0.1L6.129,8.695a0.889,0.889,0,0,1,.175.136L7.071,9.615a0.918,0.918,0,0,1,.132.178l4.561-4.668ZM6,9.145a0.467,0.467,0,0,0-.635-0.024L0.293,13.773a0.414,0.414,0,0,0-.022.6l1.381,1.412a0.392,0.392,0,0,0,.59-0.021l4.546-5.19A0.493,0.493,0,0,0,6.764,9.93Z" transform="translate(-0.156 -0.156)"/>
</svg>
