<svg xmlns="http://www.w3.org/2000/svg" width="17" height="18" viewBox="0 0 17 18">
  <metadata><?xpacket begin="﻿" id="W5M0MpCehiHzreSzNTczkc9d"?>
<x:xmpmeta xmlns:x="adobe:ns:meta/" x:xmptk="Adobe XMP Core 5.6-c142 79.160924, 2017/07/13-01:06:39        ">
   <rdf:RDF xmlns:rdf="http://www.w3.org/1999/02/22-rdf-syntax-ns#">
      <rdf:Description rdf:about=""/>
   </rdf:RDF>
</x:xmpmeta>
                                                                                                    
                                                                                                    
                                                                                                    
                                                                                                    
                                                                                                    
                                                                                                    
                                                                                                    
                                                                                                    
                                                                                                    
                                                                                                    
                                                                                                    
                                                                                                    
                                                                                                    
                                                                                                    
                                                                                                    
                                                                                                    
                                                                                                    
                                                                                                    
                                                                                                    
                                                                                                    
                           
<?xpacket end="w"?></metadata>
<defs>
    <style>
      .cls-1 {
        fill: #fff;
        fill-rule: evenodd;
        opacity: 0.8;
      }
    </style>
  </defs>
  <path id="Forma_1" data-name="Forma 1" class="cls-1" d="M8.5,2.769A5.525,5.525,0,0,0,2.783,8.063a6.144,6.144,0,0,0,1.394,3.852,2.223,2.223,0,0,1,.57,1.12,2.268,2.268,0,0,0,1.067,1.819c0.017,0.407.08,1.4,0.08,1.4h0a1.374,1.374,0,0,0,1.182,1.184,1.67,1.67,0,0,0,.467.44,0.744,0.744,0,0,0,.4.119H9.054a0.739,0.739,0,0,0,.4-0.119,1.674,1.674,0,0,0,.467-0.44,1.369,1.369,0,0,0,1.182-1.186s0.063-.993.08-1.4a2.268,2.268,0,0,0,1.067-1.819,2.237,2.237,0,0,1,.573-1.125,6.132,6.132,0,0,0,1.391-3.848A5.524,5.524,0,0,0,8.5,2.769Zm3.129,8.366a3.268,3.268,0,0,0-.82,1.9,1.031,1.031,0,0,1-.542.746H6.734a1.029,1.029,0,0,1-.541-0.746,3.282,3.282,0,0,0-.826-1.908A4.835,4.835,0,0,1,4.229,8.063,4.109,4.109,0,0,1,8.5,4.153a4.107,4.107,0,0,1,4.272,3.909A4.844,4.844,0,0,1,11.629,11.134ZM8.5,1.73a0.354,0.354,0,0,0,.362-0.346V0.346a0.362,0.362,0,0,0-.723,0V1.384A0.354,0.354,0,0,0,8.5,1.73Zm-3.84.732a0.365,0.365,0,0,0,.313.173,0.373,0.373,0,0,0,.18-0.047,0.338,0.338,0,0,0,.132-0.473l-0.542-.9A0.37,0.37,0,0,0,4.25,1.09a0.339,0.339,0,0,0-.132.473Zm-2.088,2L1.633,3.943a0.37,0.37,0,0,0-.494.127,0.339,0.339,0,0,0,.132.473L2.21,5.062a0.377,0.377,0,0,0,.18.046A0.365,0.365,0,0,0,2.7,4.935,0.339,0.339,0,0,0,2.572,4.462ZM1.807,8.14a0.354,0.354,0,0,0-.362-0.346H0.361a0.347,0.347,0,1,0,0,.693H1.446A0.355,0.355,0,0,0,1.807,8.14Zm0.4,3.078-0.939.519a0.338,0.338,0,0,0-.133.473,0.364,0.364,0,0,0,.313.173,0.37,0.37,0,0,0,.18-0.046l0.939-.519A0.338,0.338,0,0,0,2.7,11.344,0.369,0.369,0,0,0,2.21,11.218ZM15.73,11.737l-0.939-.519a0.369,0.369,0,0,0-.494.126,0.338,0.338,0,0,0,.132.473l0.939,0.519a0.372,0.372,0,0,0,.494-0.126A0.339,0.339,0,0,0,15.73,11.737Zm0.909-3.943H15.555a0.346,0.346,0,1,0,0,.692h1.084A0.346,0.346,0,1,0,16.639,7.794ZM14.61,5.107a0.371,0.371,0,0,0,.18-0.046l0.939-.519a0.338,0.338,0,0,0,.133-0.473,0.37,0.37,0,0,0-.494-0.126l-0.939.518a0.338,0.338,0,0,0-.133.472A0.365,0.365,0,0,0,14.61,5.107ZM11.847,2.589a0.368,0.368,0,0,0,.18.047,0.364,0.364,0,0,0,.313-0.173l0.542-.9a0.338,0.338,0,0,0-.132-0.472,0.369,0.369,0,0,0-.494.127l-0.542.9A0.338,0.338,0,0,0,11.847,2.589ZM8.015,10.23a0.4,0.4,0,0,0,.485.391,0.4,0.4,0,0,0,.485-0.391L9.327,7.761a4.012,4.012,0,0,0,.044-0.5V6.042A0.758,0.758,0,0,0,8.5,5.229a0.758,0.758,0,0,0-.871.812V7.266a3.944,3.944,0,0,0,.044.5ZM8.5,11.306a0.866,0.866,0,1,0,.9.865A0.889,0.889,0,0,0,8.5,11.306Z"/>
</svg>
