<svg xmlns="http://www.w3.org/2000/svg" width="20" height="15.938" viewBox="0 0 20 15.938">
  <metadata><?xpacket begin="﻿" id="W5M0MpCehiHzreSzNTczkc9d"?>
<x:xmpmeta xmlns:x="adobe:ns:meta/" x:xmptk="Adobe XMP Core 5.6-c142 79.160924, 2017/07/13-01:06:39        ">
   <rdf:RDF xmlns:rdf="http://www.w3.org/1999/02/22-rdf-syntax-ns#">
      <rdf:Description rdf:about=""/>
   </rdf:RDF>
</x:xmpmeta>
                                                                                                    
                                                                                                    
                                                                                                    
                                                                                                    
                                                                                                    
                                                                                                    
                                                                                                    
                                                                                                    
                                                                                                    
                                                                                                    
                                                                                                    
                                                                                                    
                                                                                                    
                                                                                                    
                                                                                                    
                                                                                                    
                                                                                                    
                                                                                                    
                                                                                                    
                                                                                                    
                           
<?xpacket end="w"?></metadata>
<defs>
    <style>
      .cls-1 {
        fill: #fff;
        fill-rule: evenodd;
        opacity: 0.8;
      }
    </style>
  </defs>
  <path id="Forma_1" data-name="Forma 1" class="cls-1" d="M7.651,5.315a1.755,1.755,0,0,0-.04.371,2.09,2.09,0,0,0,2.2,1.959A2.09,2.09,0,0,0,12,5.686a1.792,1.792,0,0,0-.313-1.007,5.6,5.6,0,0,1-2.472.469A5.925,5.925,0,0,0,7.651,5.315ZM19,12.374a5.642,5.642,0,0,1-1.272.714A16.573,16.573,0,0,1,16,9.84a6.2,6.2,0,0,1-.553-2.758,1.094,1.094,0,0,1,1.105-1.144,2.221,2.221,0,0,1,.708.426,1.7,1.7,0,0,0,1.177.239,4.756,4.756,0,0,0-1.123-5.186L17.011,0A4.116,4.116,0,0,0,14.25.846,4.343,4.343,0,0,0,13.268,2.6a4.006,4.006,0,0,1-1.025,1.71,2.442,2.442,0,0,1,.429,1.377A2.755,2.755,0,0,1,9.806,8.307,2.755,2.755,0,0,1,6.941,5.686a2.4,2.4,0,0,1,.022-0.319c-2.432-1.1-4.534.86-4.711,1L3.546,7.709a4.032,4.032,0,0,1,2.2-1.259C3.712,8.311,2.5,11.651,2.078,13A5.282,5.282,0,0,1,1,12.374L0,13.616a9.7,9.7,0,0,0,3.589,1.593,24.411,24.411,0,0,0,5.239.72,28.847,28.847,0,0,0,5.637-.316,15.359,15.359,0,0,0,4.35-1.268A6.574,6.574,0,0,0,20,13.616ZM9.635,14.359a22.841,22.841,0,0,1-5.925-.773,7.074,7.074,0,0,1,6.181-3.444,7.983,7.983,0,0,1,5.8,3.516L15.74,13.73A24.457,24.457,0,0,1,9.635,14.359Z"/>
</svg>
