<svg xmlns="http://www.w3.org/2000/svg" width="17" height="12.969" viewBox="0 0 17 12.969">
  <metadata><?xpacket begin="﻿" id="W5M0MpCehiHzreSzNTczkc9d"?>
<x:xmpmeta xmlns:x="adobe:ns:meta/" x:xmptk="Adobe XMP Core 5.6-c142 79.160924, 2017/07/13-01:06:39        ">
   <rdf:RDF xmlns:rdf="http://www.w3.org/1999/02/22-rdf-syntax-ns#">
      <rdf:Description rdf:about=""/>
   </rdf:RDF>
</x:xmpmeta>
                                                                                                    
                                                                                                    
                                                                                                    
                                                                                                    
                                                                                                    
                                                                                                    
                                                                                                    
                                                                                                    
                                                                                                    
                                                                                                    
                                                                                                    
                                                                                                    
                                                                                                    
                                                                                                    
                                                                                                    
                                                                                                    
                                                                                                    
                                                                                                    
                                                                                                    
                                                                                                    
                           
<?xpacket end="w"?></metadata>
<defs>
    <style>
      .cls-1 {
        fill: #fff;
        fill-rule: evenodd;
        opacity: 0.8;
      }
    </style>
  </defs>
  <path class="cls-1" d="M4.6,2h0a0.607,0.607,0,0,0-.605.608v9.112a0.61,0.61,0,0,0,.609.607,7.53,7.53,0,0,1,5.425,2.009V4.8a0.581,0.581,0,0,0-.084-0.307C8.6,2.331,6.02,2,4.6,2Zm12.406,9.72V2.607A0.607,0.607,0,0,0,16.4,2h0c-1.419,0-4,.332-5.344,2.493a0.58,0.58,0,0,0-.084.307v9.537A7.528,7.528,0,0,1,16.4,12.327,0.61,0.61,0,0,0,17.006,11.719ZM18.392,4.1H17.951v7.618A1.555,1.555,0,0,1,16.4,13.27a6.751,6.751,0,0,0-4.584,1.564,14.656,14.656,0,0,1,6.44.124A0.608,0.608,0,0,0,19,14.366V4.709A0.609,0.609,0,0,0,18.392,4.1ZM3.049,11.719V4.1H2.608A0.609,0.609,0,0,0,2,4.709v9.657a0.608,0.608,0,0,0,.744.592,14.661,14.661,0,0,1,6.44-.124A6.752,6.752,0,0,0,4.6,13.27,1.555,1.555,0,0,1,3.049,11.719Z" transform="translate(-2 -2)"/>
</svg>
