<svg xmlns="http://www.w3.org/2000/svg" width="27" height="27" viewBox="0 0 27 27">
  <metadata><?xpacket begin="﻿" id="W5M0MpCehiHzreSzNTczkc9d"?>
<x:xmpmeta xmlns:x="adobe:ns:meta/" x:xmptk="Adobe XMP Core 5.6-c142 79.160924, 2017/07/13-01:06:39        ">
   <rdf:RDF xmlns:rdf="http://www.w3.org/1999/02/22-rdf-syntax-ns#">
      <rdf:Description rdf:about=""/>
   </rdf:RDF>
</x:xmpmeta>
                                                                                                    
                                                                                                    
                                                                                                    
                                                                                                    
                                                                                                    
                                                                                                    
                                                                                                    
                                                                                                    
                                                                                                    
                                                                                                    
                                                                                                    
                                                                                                    
                                                                                                    
                                                                                                    
                                                                                                    
                                                                                                    
                                                                                                    
                                                                                                    
                                                                                                    
                                                                                                    
                           
<?xpacket end="w"?></metadata>
<defs>
    <style>
      .cls-1 {
        fill: #b953a4;
        fill-rule: evenodd;
      }
    </style>
  </defs>
  <path id="Forma_1" data-name="Forma 1" class="cls-1" d="M1327,31.5a13.5,13.5,0,1,0-22.62,9.945l-0.01.011,0.44,0.37a0.578,0.578,0,0,1,.08.067c0.24,0.194.48,0.376,0.72,0.553,0.08,0.057.16,0.115,0.24,0.171q0.4,0.271.81,0.514l0.18,0.1c0.3,0.171.61,0.333,0.92,0.481a0.439,0.439,0,0,1,.07.031,13.4,13.4,0,0,0,3.27,1.034l0.09,0.016c0.35,0.061.71,0.111,1.08,0.143l0.13,0.011c0.36,0.03.73,0.049,1.1,0.049s0.73-.019,1.09-0.048l0.14-.01c0.36-.033.71-0.081,1.07-0.141l0.09-.017a13.315,13.315,0,0,0,3.22-1.009c0.03-.017.07-0.034,0.11-0.052,0.3-.142.6-0.3,0.89-0.459l0.21-.124c0.27-.156.53-0.318,0.78-0.491,0.09-.062.18-0.127,0.27-0.192q0.33-.232.63-0.483a1.471,1.471,0,0,0,.14-0.106l0.45-.375-0.01-.011A13.481,13.481,0,0,0,1327,31.5Zm-26.02,0a12.52,12.52,0,1,1,20.82,9.358,3.27,3.27,0,0,0-.44-0.263l-4.15-2.078a1.081,1.081,0,0,1-.61-0.979V36.086a4.777,4.777,0,0,0,.3-0.4,10.135,10.135,0,0,0,1.29-2.515,1.783,1.783,0,0,0,1.02-1.615v-1.74a1.778,1.778,0,0,0-.43-1.163V26.361a4,4,0,0,0-.93-2.879,6.86,6.86,0,0,0-8.7,0,4,4,0,0,0-.93,2.879v2.291a1.777,1.777,0,0,0-.43,1.163v1.741a1.774,1.774,0,0,0,.66,1.385,9.16,9.16,0,0,0,1.51,3.137V37.5a1.1,1.1,0,0,1-.57.961l-3.88,2.117a3.53,3.53,0,0,0-.37.234A12.5,12.5,0,0,1,1300.98,31.5Zm19.86,10.128c-0.17.125-.34,0.245-0.52,0.361-0.08.053-.16,0.106-0.25,0.158-0.23.143-.46,0.279-0.7,0.407-0.06.028-.11,0.054-0.16,0.082a12.883,12.883,0,0,1-1.72.725l-0.06.021c-0.31.1-.62,0.193-0.93,0.271h-0.01c-0.31.078-.64,0.144-0.96,0.2l-0.03.005c-0.3.05-.61,0.086-0.92,0.112-0.05.005-.11,0.008-0.16,0.012-0.31.023-.61,0.038-0.92,0.038s-0.62-.015-0.93-0.038l-0.16-.012c-0.31-.028-0.62-0.064-0.93-0.114l-0.04-.007a12.384,12.384,0,0,1-1.91-.477l-0.06-.02c-0.31-.105-0.61-0.221-0.91-0.35,0,0-.01,0-0.01,0-0.28-.122-0.56-0.258-0.83-0.4a1.039,1.039,0,0,1-.11-0.055c-0.25-.134-0.5-0.279-0.74-0.43l-0.21-.137c-0.23-.145-0.45-0.3-0.66-0.458a0.435,0.435,0,0,0-.07-0.051,0.217,0.217,0,0,0,.05-0.027l3.88-2.117a2.078,2.078,0,0,0,1.09-1.823l-0.01-1.769-0.11-.136a8.21,8.21,0,0,1-1.47-3.051l-0.05-.195-0.16-.108a0.807,0.807,0,0,1-.38-0.683v-1.74a0.822,0.822,0,0,1,.27-0.6l0.16-.147v-2.8a2.936,2.936,0,0,1,.69-2.14,4.612,4.612,0,0,1,3.61-1.22,4.662,4.662,0,0,1,3.61,1.211,3,3,0,0,1,.69,2.151v2.8l0.16,0.146a0.822,0.822,0,0,1,.27.6v1.74a0.822,0.822,0,0,1-.58.773l-0.24.075-0.08.243a8.916,8.916,0,0,1-1.23,2.47,5.658,5.658,0,0,1-.36.466l-0.12.139v1.816a2.063,2.063,0,0,0,1.15,1.857l4.15,2.078a0.51,0.51,0,0,1,.08.041A1.877,1.877,0,0,1,1320.84,41.628Z" transform="translate(-1300 -18)"/>
</svg>
